Coordinates
version=1
nRows=17
nColumns=40
inDegrees=yes

Units are S.I. units (second, meters, Newtons, ...)
Angles are in degrees.

endheader
time	pelvis_tilt	pelvis_list	pelvis_rotation	pelvis_tx	pelvis_ty	pelvis_tz	hip_flexion_r	hip_adduction_r	hip_rotation_r	knee_angle_r	knee_angle_r_beta	ankle_angle_r	subtalar_angle_r	mtp_angle_r	hip_flexion_l	hip_adduction_l	hip_rotation_l	knee_angle_l	knee_angle_l_beta	ankle_angle_l	subtalar_angle_l	mtp_angle_l	lumbar_extension	lumbar_bending	lumbar_rotation	arm_flex_r	arm_add_r	arm_rot_r	elbow_flex_r	pro_sup_r	wrist_flex_r	wrist_dev_r	arm_flex_l	arm_add_l	arm_rot_l	elbow_flex_l	pro_sup_l	wrist_flex_l	wrist_dev_l
     11.02250000	     -4.32757715	     -4.88572259	      3.20134357	      0.98037157	      0.93326739	      0.47888696	      6.66381303	      6.09199190	    -19.57142191	      9.98740191	      9.98740191	     10.51973731	      6.27634340	     -3.66210393	     34.91748254	    -10.56080906	     -0.78432441	     37.24832680	     37.24832680	      9.55286673	    -16.98011315	     12.98530298	     -9.24415868	      7.00767021	      5.15627588	     31.22658908	    -17.35460205	     -2.61968921	     63.52396171	     45.26467546	      0.00000000	      0.00000000	     -2.10842142	     -6.27588419	     -1.53362219	     23.02358363	     46.13259961	      0.00000000	      0.00000000
     11.03471429	     -4.42274417	     -4.93168407	      3.23089936	      0.97892026	      0.93281078	      0.47891506	      6.29497623	      6.18004097	    -19.56439815	      9.87419894	      9.87419894	     10.77990047	      6.40215885	     -3.75200121	     34.74910617	    -10.27919541	     -0.98555756	     33.55521865	     33.55521865	      9.73335829	    -15.85090777	     13.26544895	     -9.22456402	      7.18181432	      5.14282385	     32.88634045	    -17.13530603	     -2.75625216	     64.85740761	     45.23342378	      0.00000000	      0.00000000	     -3.11036499	     -6.28080742	     -1.40661159	     22.60817862	     46.08627585	      0.00000000	      0.00000000
     11.04692857	     -4.47996987	     -5.01681684	      3.30085520	      0.97751938	      0.93236179	      0.47880414	      5.86821311	      6.29556809	    -19.69656714	      9.73589982	      9.73589982	     11.05074739	      6.72810756	     -3.81654353	     34.51229913	    -10.00963001	     -1.14381539	     29.98881867	     29.98881867	      9.81872630	    -14.50094746	     13.31546871	     -9.27160002	      7.41944098	      4.92909272	     34.41323469	    -16.76961662	     -2.81168899	     66.72296611	     45.18153450	      0.00000000	      0.00000000	     -4.18034739	     -6.26753734	     -1.20137540	     22.30185524	     46.02007545	      0.00000000	      0.00000000
     11.05914286	     -4.57661996	     -5.14037161	      3.38181763	      0.97622289	      0.93181406	      0.47849414	      5.45940588	      6.42160380	    -20.02049211	      9.58005150	      9.58005150	     11.37758382	      7.33813455	     -3.72268782	     34.32938368	     -9.80058608	     -1.45616782	     26.67111012	     26.67111012	      9.62343650	    -12.89345952	     12.62295957	     -9.29081358	      7.73214684	      4.92277989	     35.38205821	    -16.71509729	     -2.83392921	     69.64782460	     45.09840455	      0.00000000	      0.00000000	     -5.26183865	     -6.28233410	     -0.57413167	     22.60664562	     45.85668521	      0.00000000	      0.00000000
     11.07135714	     -4.64848977	     -5.16647830	      3.41606614	      0.97496289	      0.93141018	      0.47817384	      5.06475566	      6.46291632	    -19.98549705	      9.49639255	      9.49639255	     11.64819445	      7.42900498	     -3.76129433	     34.05297503	     -9.50080074	     -1.88283222	     23.57735980	     23.57735980	      9.65011236	    -11.23313820	     12.82300310	     -9.27249470	      7.88411245	      4.92116030	     36.63501380	    -16.50700128	     -2.91883822	     71.04395843	     45.06369276	      0.00000000	      0.00000000	     -6.11462807	     -6.28061379	     -0.33862381	     22.42453651	     45.79026346	      0.00000000	      0.00000000
     11.08357143	     -4.73063785	     -5.22655087	      3.47682520	      0.97377187	      0.93098650	      0.47773327	      4.63748641	      6.54276174	    -20.01945105	      9.33746046	      9.33746046	     11.88834900	      7.63495096	     -3.76396992	     33.85229452	     -9.23897902	     -2.41809574	     20.90187881	     20.90187881	      9.60911058	     -9.51218830	     12.98939979	     -9.24239804	      8.09104903	      4.78420280	     37.75164944	    -16.17679739	     -2.96336930	     72.73882400	     45.01736284	      0.00000000	      0.00000000	     -6.98931675	     -6.25000725	     -0.09199691	     22.34409227	     45.71963165	      0.00000000	      0.00000000
     11.09578571	     -4.79256919	     -5.35218586	      3.55912536	      0.97274118	      0.93056048	      0.47722804	      4.13916974	      6.69027695	    -20.19061910	      9.10152346	      9.10152346	     12.18423729	      8.10584192	     -3.52276813	     33.77657460	     -9.09215471	     -3.22899349	     18.83721633	     18.83721633	      9.47678211	     -7.58099795	     12.62732297	     -9.28043591	      8.36494312	      4.90633668	     38.14676598	    -16.18583697	     -3.12554922	     75.97102242	     44.93579936	      0.00000000	      0.00000000	     -7.98258779	     -6.35202479	      0.85114606	     23.18709509	     45.49693051	      0.00000000	      0.00000000
     11.10800000	     -5.00108452	     -5.51354547	      3.58108308	      0.97156779	      0.92988694	      0.47661239	      3.90991244	      6.84368420	    -20.12660605	      9.04490896	      9.04490896	     12.39617358	      8.13917828	     -3.58185566	     33.95908181	     -8.88272118	     -3.61138414	     17.31877662	     17.31877662	      9.29573235	     -6.77271351	     12.88945766	     -9.03911171	      8.67954205	      5.01550821	     39.24286973	    -16.24547346	     -3.27237534	     76.71163554	     44.92279945	      0.00000000	      0.00000000	     -8.62692065	     -6.31053152	      0.94559512	     23.00567870	     45.46650261	      0.00000000	      0.00000000
     11.12021429	     -4.93856257	     -5.33345775	      3.63456866	      0.97084474	      0.92998305	      0.47585426	      3.25669360	      6.66115983	    -20.06584305	      8.84800778	      8.84800778	     12.62286675	      8.29307411	     -3.52079163	     33.46210805	     -8.40458193	     -4.59455304	     15.66848785	     15.66848785	      8.99147769	     -5.53198508	     13.12951900	     -9.12543172	      8.56696426	      4.59453101	     39.76269224	    -15.50462138	     -3.18006189	     78.49436232	     44.86798902	      0.00000000	      0.00000000	     -9.32256992	     -6.29897634	      1.22417787	     22.99931514	     45.39745073	      0.00000000	      0.00000000
     11.13242857	     -5.00426277	     -5.39800394	      3.68772347	      0.97007357	      0.92960153	      0.47508389	      2.74659927	      6.72453568	    -20.21483796	      8.62892518	      8.62892518	     12.92088162	      8.74206018	     -3.23109624	     33.48733835	     -8.20383466	     -5.48765789	     15.05907336	     15.05907336	      8.75745603	     -4.67210903	     12.83601440	     -9.15308228	      8.77086802	      4.71507393	     39.76012386	    -15.54645271	     -3.35260359	     81.56713970	     44.79237428	      0.00000000	      0.00000000	    -10.11039980	     -6.42675276	      1.99660652	     23.87625803	     45.22755332	      0.00000000	      0.00000000
     11.14464286	     -5.08506466	     -5.34332087	      3.67283150	      0.96943728	      0.92930575	      0.47423538	      2.32200006	      6.62944280	    -20.13199383	      8.58170585	      8.58170585	     13.20646813	      8.86865311	     -3.12714923	     33.31988841	     -7.85147142	     -6.05567003	     14.54738457	     14.54738457	      8.30719381	     -4.58476287	     12.88013821	     -9.03583044	      8.76083139	      4.62642298	     40.03616468	    -15.36732404	     -3.43423212	     82.91462387	     44.76267469	      0.00000000	      0.00000000	    -10.61592770	     -6.44667219	      2.43109901	     23.99664601	     45.14055583	      0.00000000	      0.00000000
     11.15685714	     -5.17282213	     -5.33187161	      3.65968856	      0.96894329	      0.92888569	      0.47332205	      1.89868696	      6.56875246	    -20.14553604	      8.54353771	      8.54353771	     13.53707857	      9.13974604	     -2.93738715	     33.19134970	     -7.55793574	     -6.46319605	     14.49714441	     14.49714441	      7.80361449	     -4.86564472	     12.69602393	     -8.93424531	      8.81925574	      4.56568198	     40.04954191	    -15.24965817	     -3.48172305	     84.75180053	     44.71836527	      0.00000000	      0.00000000	    -11.12836694	     -6.49605417	      2.90748921	     24.35367100	     45.04762275	      0.00000000	      0.00000000
     11.16907143	     -5.28726423	     -5.30208539	      3.56069618	      0.96857252	      0.92833925	      0.47244152	      1.51315614	      6.48644876	    -20.00542904	      8.54085265	      8.54085265	     13.83516659	      9.22644295	     -2.97864558	     33.04087060	     -7.32817151	     -6.89447523	     14.76706860	     14.76706860	      7.39678746	     -5.19036587	     12.77611079	     -8.68628352	      8.82944978	      4.61565067	     40.19667915	    -15.26965773	     -3.51336358	     85.07893286	     44.71105409	      0.00000000	      0.00000000	    -11.41679262	     -6.48177335	      2.95472782	     24.32176341	     45.03447191	      0.00000000	      0.00000000
     11.18128571	     -5.35881725	     -5.28408313	      3.49510053	      0.96839850	      0.92764822	      0.47140165	      1.12597014	      6.36396358	    -20.09291206	      8.67746232	      8.67746232	     14.33556901	      9.64885311	     -2.63527256	     32.77827045	     -7.02006970	     -6.68327090	     15.20573584	     15.20573584	      6.62995291	     -6.43866916	     12.32828041	     -8.61070887	      8.86216317	      4.52420755	     39.71993434	    -15.22263171	     -3.47469624	     87.77172732	     44.63722248	      0.00000000	      0.00000000	    -11.92315612	     -6.55144080	      3.34217417	     25.04188207	     44.96003665	      0.00000000	      0.00000000
     11.19350000	     -5.37900969	     -5.21426637	      3.32921304	      0.96849816	      0.92693483	      0.47044909	      0.70110315	      6.17877153	    -20.06574648	      8.91707254	      8.91707254	     15.07409493	     10.03943844	     -1.81758016	     32.28605855	     -6.75334517	     -6.59663444	     15.62553683	     15.62553683	      5.57263789	     -7.53157861	     11.21608753	     -8.53643843	      8.77873287	      5.16221364	     38.80613987	    -15.88092239	     -3.96873027	     89.83666472	     44.63108319	      0.00000000	      0.00000000	    -12.08772873	     -6.88194066	      4.54743224	     25.96720885	     44.78756720	      0.00000000	      0.00000000
     11.20571429	     -5.42902235	     -5.20827696	      3.15570798	      0.96865856	      0.92598032	      0.46953888	      0.29432541	      6.08288812	    -19.90279998	      9.09089682	      9.09089682	     15.51863968	     10.14443927	     -1.81670525	     31.94660535	     -6.60115852	     -6.42189105	     16.44198354	     16.44198354	      5.02458732	     -8.43788677	     11.17029027	     -8.34772642	      8.76852713	      4.96947676	     38.53134770	    -15.70515302	     -3.87475556	     90.49733170	     44.61469141	      0.00000000	      0.00000000	    -12.29383276	     -6.88765057	      4.74420366	     26.05388910	     44.76049975	      0.00000000	      0.00000000
     11.21792857	     -5.50946486	     -5.13935804	      2.92643285	      0.96896386	      0.92490192	      0.46856474	     -0.04338869	      5.88411508	    -19.73912161	      9.37814360	      9.37814360	     16.09634019	     10.30735696	     -1.61590966	     31.48549887	     -6.33756546	     -5.93755338	     17.05235420	     17.05235420	      4.19129772	     -9.79401736	     10.95573838	     -8.16653217	      8.66422313	      5.01782875	     37.78029819	    -15.87708570	     -3.81574816	     91.72727661	     44.58808513	      0.00000000	      0.00000000	    -12.46256429	     -6.98206157	      4.98648196	     26.57807714	     44.73426871	      0.00000000	      0.00000000
